<svg width="54" height="11" viewBox="0 0 54 11" fill="none" xmlns="http://www.w3.org/2000/svg">
<path d="M4.044 8.448C4.044 8.6 3.992 8.732 3.888 8.844C3.784 8.948 3.656 9 3.504 9H1.824C1.456 9 1.14 8.872 0.876 8.616C0.62 8.352 0.492 8.032 0.492 7.656V1.44C0.492 1.28 0.544 1.148 0.648 1.044C0.752 0.939999 0.88 0.887999 1.032 0.887999H1.368C1.52 0.887999 1.648 0.939999 1.752 1.044C1.864 1.148 1.92 1.28 1.92 1.44V2.64C1.92 2.736 1.972 2.784 2.076 2.784H3.504C3.656 2.784 3.784 2.84 3.888 2.952C3.992 3.056 4.044 3.188 4.044 3.348V3.672C4.044 3.808 3.992 3.936 3.888 4.056C3.768 4.16 3.64 4.212 3.504 4.212H2.076C1.972 4.212 1.92 4.268 1.92 4.38V7.428C1.92 7.532 1.972 7.584 2.076 7.584H3.504C3.656 7.584 3.784 7.636 3.888 7.74C3.992 7.844 4.044 7.976 4.044 8.136V8.448ZM9.35916 7.656C9.35916 8.032 9.22716 8.352 8.96316 8.616C8.70716 8.872 8.39516 9 8.02716 9H6.35916C5.99116 9 5.67516 8.872 5.41116 8.616C5.14716 8.352 5.01516 8.032 5.01516 7.656V3.348C5.01516 3.188 5.06716 3.056 5.17116 2.952C5.28316 2.84 5.41516 2.784 5.56716 2.784H5.90316C6.05516 2.784 6.18316 2.84 6.28716 2.952C6.39116 3.056 6.44316 3.188 6.44316 3.348V7.428C6.44316 7.468 6.45916 7.504 6.49116 7.536C6.53116 7.568 6.57116 7.584 6.61116 7.584H7.77516C7.81516 7.584 7.85116 7.568 7.88316 7.536C7.92316 7.504 7.94316 7.468 7.94316 7.428V3.348C7.94316 3.188 7.99516 3.056 8.09916 2.952C8.20316 2.84 8.33116 2.784 8.48316 2.784H8.81916C8.97116 2.784 9.09916 2.84 9.20316 2.952C9.30716 3.056 9.35916 3.188 9.35916 3.348V7.656ZM14.6795 7.656C14.6795 8.032 14.5475 8.352 14.2835 8.616C14.0275 8.872 13.7155 9 13.3475 9H11.9315C11.8915 9 11.8515 9.016 11.8115 9.048C11.7795 9.08 11.7635 9.116 11.7635 9.156V10.368C11.7635 10.52 11.7115 10.648 11.6075 10.752C11.5035 10.864 11.3755 10.92 11.2235 10.92H10.8875C10.7355 10.92 10.6035 10.864 10.4915 10.752C10.3875 10.648 10.3355 10.52 10.3355 10.368V4.128C10.3355 3.88 10.3955 3.656 10.5155 3.456C10.6435 3.248 10.8075 3.084 11.0075 2.964C11.2075 2.844 11.4315 2.784 11.6795 2.784H13.3475C13.5955 2.784 13.8195 2.844 14.0195 2.964C14.2195 3.084 14.3795 3.248 14.4995 3.456C14.6195 3.656 14.6795 3.88 14.6795 4.128V7.656ZM13.2635 7.428V4.38C13.2635 4.332 13.2435 4.292 13.2035 4.26C13.1715 4.228 13.1355 4.212 13.0955 4.212H11.9315C11.8915 4.212 11.8515 4.228 11.8115 4.26C11.7795 4.292 11.7635 4.332 11.7635 4.38V7.428C11.7635 7.468 11.7795 7.504 11.8115 7.536C11.8515 7.568 11.8915 7.584 11.9315 7.584H13.0955C13.1355 7.584 13.1715 7.568 13.2035 7.536C13.2435 7.504 13.2635 7.468 13.2635 7.428ZM17.8398 8.448C17.8398 8.6 17.7838 8.732 17.6718 8.844C17.5678 8.948 17.4398 9 17.2878 9H16.9878C16.6198 9 16.3038 8.872 16.0398 8.616C15.7758 8.352 15.6438 8.032 15.6438 7.656V1.44C15.6438 1.28 15.6958 1.148 15.7998 1.044C15.9118 0.939999 16.0438 0.887999 16.1958 0.887999H16.5318C16.6838 0.887999 16.8118 0.939999 16.9158 1.044C17.0278 1.148 17.0838 1.28 17.0838 1.44V7.428C17.0838 7.532 17.1318 7.584 17.2278 7.584H17.2878C17.4398 7.584 17.5678 7.636 17.6718 7.74C17.7838 7.844 17.8398 7.976 17.8398 8.136V8.448ZM23.1287 5.436C23.1287 5.676 23.0687 5.9 22.9487 6.108C22.8287 6.308 22.6687 6.472 22.4687 6.6C22.2687 6.72 22.0447 6.78 21.7967 6.78H20.3807C20.3407 6.78 20.3007 6.796 20.2607 6.828C20.2287 6.852 20.2127 6.884 20.2127 6.924V7.428C20.2127 7.468 20.2287 7.504 20.2607 7.536C20.3007 7.568 20.3407 7.584 20.3807 7.584H21.7967C21.9487 7.584 22.0767 7.636 22.1807 7.74C22.2927 7.844 22.3487 7.976 22.3487 8.136V8.448C22.3487 8.6 22.2927 8.732 22.1807 8.844C22.0767 8.948 21.9487 9 21.7967 9H20.1287C19.7607 9 19.4447 8.872 19.1807 8.616C18.9167 8.352 18.7847 8.032 18.7847 7.656V4.128C18.7847 3.88 18.8447 3.656 18.9647 3.456C19.0927 3.256 19.2567 3.096 19.4567 2.976C19.6567 2.848 19.8807 2.784 20.1287 2.784H21.7967C22.0447 2.784 22.2687 2.848 22.4687 2.976C22.6687 3.096 22.8287 3.256 22.9487 3.456C23.0687 3.656 23.1287 3.88 23.1287 4.128V5.436ZM21.7127 5.196V4.38C21.7127 4.332 21.6927 4.292 21.6527 4.26C21.6207 4.228 21.5847 4.212 21.5447 4.212H20.3807C20.3407 4.212 20.3007 4.228 20.2607 4.26C20.2287 4.292 20.2127 4.332 20.2127 4.38V5.196C20.2127 5.228 20.2287 5.26 20.2607 5.292C20.3007 5.324 20.3407 5.34 20.3807 5.34H21.5447C21.5847 5.34 21.6207 5.324 21.6527 5.292C21.6927 5.26 21.7127 5.228 21.7127 5.196ZM26.289 8.448C26.289 8.6 26.233 8.732 26.121 8.844C26.017 8.948 25.889 9 25.737 9H25.437C25.069 9 24.753 8.872 24.489 8.616C24.225 8.352 24.093 8.032 24.093 7.656V1.44C24.093 1.28 24.145 1.148 24.249 1.044C24.361 0.939999 24.493 0.887999 24.645 0.887999H24.981C25.133 0.887999 25.261 0.939999 25.365 1.044C25.477 1.148 25.533 1.28 25.533 1.44V7.428C25.533 7.532 25.581 7.584 25.677 7.584H25.737C25.889 7.584 26.017 7.636 26.121 7.74C26.233 7.844 26.289 7.976 26.289 8.136V8.448ZM31.5779 5.436C31.5779 5.676 31.5179 5.9 31.3979 6.108C31.2779 6.308 31.1179 6.472 30.9179 6.6C30.7179 6.72 30.4939 6.78 30.2459 6.78H28.8299C28.7899 6.78 28.7499 6.796 28.7099 6.828C28.6779 6.852 28.6619 6.884 28.6619 6.924V7.428C28.6619 7.468 28.6779 7.504 28.7099 7.536C28.7499 7.568 28.7899 7.584 28.8299 7.584H30.2459C30.3979 7.584 30.5259 7.636 30.6299 7.74C30.7419 7.844 30.7979 7.976 30.7979 8.136V8.448C30.7979 8.6 30.7419 8.732 30.6299 8.844C30.5259 8.948 30.3979 9 30.2459 9H28.5779C28.2099 9 27.8939 8.872 27.6299 8.616C27.3659 8.352 27.2339 8.032 27.2339 7.656V4.128C27.2339 3.88 27.2939 3.656 27.4139 3.456C27.5419 3.256 27.7059 3.096 27.9059 2.976C28.1059 2.848 28.3299 2.784 28.5779 2.784H30.2459C30.4939 2.784 30.7179 2.848 30.9179 2.976C31.1179 3.096 31.2779 3.256 31.3979 3.456C31.5179 3.656 31.5779 3.88 31.5779 4.128V5.436ZM30.1619 5.196V4.38C30.1619 4.332 30.1419 4.292 30.1019 4.26C30.0699 4.228 30.0339 4.212 29.9939 4.212H28.8299C28.7899 4.212 28.7499 4.228 28.7099 4.26C28.6779 4.292 28.6619 4.332 28.6619 4.38V5.196C28.6619 5.228 28.6779 5.26 28.7099 5.292C28.7499 5.324 28.7899 5.34 28.8299 5.34H29.9939C30.0339 5.34 30.0699 5.324 30.1019 5.292C30.1419 5.26 30.1619 5.228 30.1619 5.196ZM36.8982 7.656C36.8982 8.032 36.7662 8.352 36.5022 8.616C36.2462 8.872 35.9342 9 35.5662 9H33.8982C33.5302 9 33.2142 8.872 32.9502 8.616C32.6862 8.352 32.5542 8.032 32.5542 7.656V6.348C32.5542 6.1 32.6142 5.88 32.7342 5.688C32.8622 5.488 33.0262 5.328 33.2262 5.208C33.4262 5.088 33.6502 5.028 33.8982 5.028H35.3142C35.3542 5.028 35.3902 5.012 35.4222 4.98C35.4622 4.948 35.4822 4.908 35.4822 4.86V4.38C35.4822 4.332 35.4622 4.292 35.4222 4.26C35.3902 4.228 35.3542 4.212 35.3142 4.212H33.8982C33.7462 4.212 33.6142 4.16 33.5022 4.056C33.3982 3.952 33.3462 3.824 33.3462 3.672V3.348C33.3462 3.188 33.3982 3.056 33.5022 2.952C33.6142 2.84 33.7462 2.784 33.8982 2.784H35.5662C35.8142 2.784 36.0382 2.844 36.2382 2.964C36.4382 3.084 36.5982 3.248 36.7182 3.456C36.8382 3.656 36.8982 3.88 36.8982 4.128V7.656ZM35.4822 7.428V6.6C35.4822 6.56 35.4622 6.524 35.4222 6.492C35.3902 6.46 35.3542 6.444 35.3142 6.444H34.1502C34.1102 6.444 34.0702 6.46 34.0302 6.492C33.9982 6.524 33.9822 6.56 33.9822 6.6V7.428C33.9822 7.468 33.9982 7.504 34.0302 7.536C34.0702 7.568 34.1102 7.584 34.1502 7.584H35.3142C35.3542 7.584 35.3902 7.568 35.4222 7.536C35.4622 7.504 35.4822 7.468 35.4822 7.428ZM42.2185 7.656C42.2185 8.032 42.0865 8.352 41.8225 8.616C41.5665 8.872 41.2545 9 40.8865 9H39.4705C39.4305 9 39.3905 9.016 39.3505 9.048C39.3185 9.08 39.3025 9.116 39.3025 9.156V10.368C39.3025 10.52 39.2505 10.648 39.1465 10.752C39.0425 10.864 38.9145 10.92 38.7625 10.92H38.4265C38.2745 10.92 38.1425 10.864 38.0305 10.752C37.9265 10.648 37.8745 10.52 37.8745 10.368V4.128C37.8745 3.88 37.9345 3.656 38.0545 3.456C38.1825 3.248 38.3465 3.084 38.5465 2.964C38.7465 2.844 38.9705 2.784 39.2185 2.784H40.8865C41.1345 2.784 41.3585 2.844 41.5585 2.964C41.7585 3.084 41.9185 3.248 42.0385 3.456C42.1585 3.656 42.2185 3.88 42.2185 4.128V7.656ZM40.8025 7.428V4.38C40.8025 4.332 40.7825 4.292 40.7425 4.26C40.7105 4.228 40.6745 4.212 40.6345 4.212H39.4705C39.4305 4.212 39.3905 4.228 39.3505 4.26C39.3185 4.292 39.3025 4.332 39.3025 4.38V7.428C39.3025 7.468 39.3185 7.504 39.3505 7.536C39.3905 7.568 39.4305 7.584 39.4705 7.584H40.6345C40.6745 7.584 40.7105 7.568 40.7425 7.536C40.7825 7.504 40.8025 7.468 40.8025 7.428ZM44.9948 8.1C44.9948 8.348 44.9028 8.56 44.7188 8.736C44.5428 8.912 44.3308 9 44.0828 9C43.8428 9 43.6308 8.912 43.4468 8.736C43.2708 8.56 43.1828 8.348 43.1828 8.1C43.1828 7.852 43.2708 7.64 43.4468 7.464C43.6308 7.288 43.8428 7.2 44.0828 7.2C44.3308 7.2 44.5428 7.288 44.7188 7.464C44.9028 7.64 44.9948 7.852 44.9948 8.1ZM50.3279 7.656C50.3279 8.032 50.1959 8.352 49.9319 8.616C49.6759 8.872 49.3639 9 48.9959 9H47.3279C46.9599 9 46.6439 8.872 46.3799 8.616C46.1159 8.352 45.9839 8.032 45.9839 7.656V6.348C45.9839 6.1 46.0439 5.88 46.1639 5.688C46.2919 5.488 46.4559 5.328 46.6559 5.208C46.8559 5.088 47.0799 5.028 47.3279 5.028H48.7439C48.7839 5.028 48.8199 5.012 48.8519 4.98C48.8919 4.948 48.9119 4.908 48.9119 4.86V4.38C48.9119 4.332 48.8919 4.292 48.8519 4.26C48.8199 4.228 48.7839 4.212 48.7439 4.212H47.3279C47.1759 4.212 47.0439 4.16 46.9319 4.056C46.8279 3.952 46.7759 3.824 46.7759 3.672V3.348C46.7759 3.188 46.8279 3.056 46.9319 2.952C47.0439 2.84 47.1759 2.784 47.3279 2.784H48.9959C49.2439 2.784 49.4679 2.844 49.6679 2.964C49.8679 3.084 50.0279 3.248 50.1479 3.456C50.2679 3.656 50.3279 3.88 50.3279 4.128V7.656ZM48.9119 7.428V6.6C48.9119 6.56 48.8919 6.524 48.8519 6.492C48.8199 6.46 48.7839 6.444 48.7439 6.444H47.5799C47.5399 6.444 47.4999 6.46 47.4599 6.492C47.4279 6.524 47.4119 6.56 47.4119 6.6V7.428C47.4119 7.468 47.4279 7.504 47.4599 7.536C47.4999 7.568 47.5399 7.584 47.5799 7.584H48.7439C48.7839 7.584 48.8199 7.568 48.8519 7.536C48.8919 7.504 48.9119 7.468 48.9119 7.428ZM53.1162 1.656C53.1162 1.904 53.0242 2.12 52.8402 2.304C52.6642 2.48 52.4562 2.568 52.2162 2.568C51.9682 2.568 51.7522 2.48 51.5682 2.304C51.3922 2.12 51.3042 1.904 51.3042 1.656C51.3042 1.416 51.3922 1.208 51.5682 1.032C51.7522 0.848 51.9682 0.756 52.2162 0.756C52.4562 0.756 52.6642 0.848 52.8402 1.032C53.0242 1.208 53.1162 1.416 53.1162 1.656ZM52.9242 8.448C52.9242 8.6 52.8682 8.732 52.7562 8.844C52.6522 8.948 52.5242 9 52.3722 9H52.0482C51.8962 9 51.7642 8.948 51.6522 8.844C51.5482 8.732 51.4962 8.6 51.4962 8.448V3.468C51.4962 3.316 51.5482 3.188 51.6522 3.084C51.7642 2.972 51.8962 2.916 52.0482 2.916H52.3722C52.5242 2.916 52.6522 2.972 52.7562 3.084C52.8682 3.188 52.9242 3.316 52.9242 3.468V8.448Z" fill="black"/>
</svg>
